<svg width="21" height="17" viewBox="0 0 21 17" fill="none" xmlns="http://www.w3.org/2000/svg">
<path d="M18.833 0.166656H2.16634C1.02051 0.166656 0.0830078 1.10416 0.0830078 2.24999V14.75C0.0830078 15.8958 1.02051 16.8333 2.16634 16.8333H18.833C19.9788 16.8333 20.9163 15.8958 20.9163 14.75V2.24999C20.9163 1.10416 19.9788 0.166656 18.833 0.166656ZM18.4163 4.59374L11.6038 8.85416C10.9268 9.28124 10.0726 9.28124 9.39551 8.85416L2.58301 4.59374C2.32259 4.42707 2.16634 4.14582 2.16634 3.84374C2.16634 3.14582 2.92676 2.72916 3.52051 3.09374L10.4997 7.45832L17.4788 3.09374C18.0726 2.72916 18.833 3.14582 18.833 3.84374C18.833 4.14582 18.6768 4.42707 18.4163 4.59374Z" fill="#F47C7C"/>
</svg>
